<mxfile host="www.draw.io" modified="2019-10-29T06:45:05.871Z" agent="Mozilla/5.0 (Windows NT 10.0; WOW64) AppleWebKit/537.36 (KHTML, like Gecko) Chrome/63.0.3239.132 Safari/537.36" etag="wIEjPnlxzGLN24inuYo9" version="12.1.8" type="github" pages="1">
  <diagram id="rqDvnctBdF8AcJUeo6GC" name="第 1 页">
    <mxGraphModel dx="1662" dy="798" grid="1" gridSize="10" guides="1" tooltips="1" connect="1" arrows="1" fold="1" page="1" pageScale="1" pageWidth="827" pageHeight="1169" math="0" shadow="0">
      <root>
        <mxCell id="0"/>
        <mxCell id="1" parent="0"/>
        <mxCell id="jYT0G0JyMi2GddSKiYHh-19" value="注册处理" style="swimlane;html=1;childLayout=stackLayout;resizeParent=1;resizeParentMax=0;horizontal=0;startSize=20;horizontalStack=0;" parent="1" vertex="1">
          <mxGeometry x="40" y="40" width="737.5" height="530" as="geometry"/>
        </mxCell>
        <mxCell id="jYT0G0JyMi2GddSKiYHh-20" value="材料准备" style="swimlane;html=1;startSize=20;horizontal=0;" parent="jYT0G0JyMi2GddSKiYHh-19" vertex="1">
          <mxGeometry x="20" width="717.5" height="170" as="geometry"/>
        </mxCell>
        <mxCell id="jYT0G0JyMi2GddSKiYHh-27" style="edgeStyle=orthogonalEdgeStyle;rounded=0;orthogonalLoop=1;jettySize=auto;html=1;" parent="jYT0G0JyMi2GddSKiYHh-20" source="jYT0G0JyMi2GddSKiYHh-24" target="uuLHnDY0vErq9mZobmXy-1" edge="1">
          <mxGeometry relative="1" as="geometry">
            <mxPoint x="547.5" y="94" as="targetPoint"/>
          </mxGeometry>
        </mxCell>
        <mxCell id="jYT0G0JyMi2GddSKiYHh-24" value="" style="verticalLabelPosition=bottom;aspect=fixed;html=1;verticalAlign=top;strokeColor=none;align=center;outlineConnect=0;shape=mxgraph.citrix.laptop_2;" parent="jYT0G0JyMi2GddSKiYHh-20" vertex="1">
          <mxGeometry x="47" y="51" width="116" height="86.5" as="geometry"/>
        </mxCell>
        <mxCell id="jYT0G0JyMi2GddSKiYHh-28" value="加盟商后台上传学员人脸与学号信息" style="whiteSpace=wrap;html=1;rounded=1;arcSize=50;align=center;verticalAlign=middle;container=1;recursiveResize=0;strokeWidth=1;autosize=1;spacing=4;treeFolding=1;treeMoving=1;" parent="jYT0G0JyMi2GddSKiYHh-20" vertex="1">
          <mxGeometry x="210" y="10" width="230" height="30" as="geometry"/>
        </mxCell>
        <mxCell id="jYT0G0JyMi2GddSKiYHh-29" value="" style="edgeStyle=entityRelationEdgeStyle;startArrow=none;endArrow=none;segment=10;curved=1;" parent="jYT0G0JyMi2GddSKiYHh-20" source="jYT0G0JyMi2GddSKiYHh-24" target="jYT0G0JyMi2GddSKiYHh-28" edge="1">
          <mxGeometry relative="1" as="geometry">
            <mxPoint x="180" y="50" as="sourcePoint"/>
          </mxGeometry>
        </mxCell>
        <mxCell id="jYT0G0JyMi2GddSKiYHh-105" value="独立人脸组服务器" style="whiteSpace=wrap;html=1;rounded=1;arcSize=50;align=center;verticalAlign=middle;container=1;recursiveResize=0;strokeWidth=1;autosize=1;spacing=4;treeFolding=1;treeMoving=1;" parent="jYT0G0JyMi2GddSKiYHh-20" vertex="1">
          <mxGeometry x="520" y="10" width="140" height="30" as="geometry"/>
        </mxCell>
        <mxCell id="jYT0G0JyMi2GddSKiYHh-106" value="" style="edgeStyle=entityRelationEdgeStyle;startArrow=none;endArrow=none;segment=10;curved=1;exitX=0.915;exitY=0.439;exitDx=0;exitDy=0;exitPerimeter=0;" parent="jYT0G0JyMi2GddSKiYHh-20" source="uuLHnDY0vErq9mZobmXy-1" target="jYT0G0JyMi2GddSKiYHh-105" edge="1">
          <mxGeometry relative="1" as="geometry">
            <mxPoint x="670" y="100" as="sourcePoint"/>
          </mxGeometry>
        </mxCell>
        <mxCell id="uuLHnDY0vErq9mZobmXy-1" value="" style="verticalLabelPosition=bottom;aspect=fixed;html=1;verticalAlign=top;strokeColor=none;align=center;outlineConnect=0;shape=mxgraph.citrix.web_server;" vertex="1" parent="jYT0G0JyMi2GddSKiYHh-20">
          <mxGeometry x="560" y="48.5" width="76.5" height="90" as="geometry"/>
        </mxCell>
        <mxCell id="jYT0G0JyMi2GddSKiYHh-21" value="用户注册" style="swimlane;html=1;startSize=20;horizontal=0;" parent="jYT0G0JyMi2GddSKiYHh-19" vertex="1">
          <mxGeometry x="20" y="170" width="717.5" height="180" as="geometry"/>
        </mxCell>
        <mxCell id="jYT0G0JyMi2GddSKiYHh-35" style="edgeStyle=orthogonalEdgeStyle;rounded=0;orthogonalLoop=1;jettySize=auto;html=1;" parent="jYT0G0JyMi2GddSKiYHh-21" source="jYT0G0JyMi2GddSKiYHh-30" target="jYT0G0JyMi2GddSKiYHh-31" edge="1">
          <mxGeometry relative="1" as="geometry"/>
        </mxCell>
        <mxCell id="jYT0G0JyMi2GddSKiYHh-30" value="" style="image;html=1;labelBackgroundColor=#ffffff;image=img/lib/clip_art/telecommunication/iPhone_128x128.png" parent="jYT0G0JyMi2GddSKiYHh-21" vertex="1">
          <mxGeometry x="207" y="49.5" width="80" height="80" as="geometry"/>
        </mxCell>
        <mxCell id="jYT0G0JyMi2GddSKiYHh-36" style="edgeStyle=orthogonalEdgeStyle;rounded=0;orthogonalLoop=1;jettySize=auto;html=1;" parent="jYT0G0JyMi2GddSKiYHh-21" source="jYT0G0JyMi2GddSKiYHh-31" target="jYT0G0JyMi2GddSKiYHh-32" edge="1">
          <mxGeometry relative="1" as="geometry"/>
        </mxCell>
        <mxCell id="jYT0G0JyMi2GddSKiYHh-31" value="" style="verticalLabelPosition=bottom;aspect=fixed;html=1;verticalAlign=top;strokeColor=none;align=center;outlineConnect=0;shape=mxgraph.citrix.access_card;" parent="jYT0G0JyMi2GddSKiYHh-21" vertex="1">
          <mxGeometry x="406.5" y="52.5" width="55.5" height="75" as="geometry"/>
        </mxCell>
        <mxCell id="jYT0G0JyMi2GddSKiYHh-32" value="" style="verticalLabelPosition=bottom;aspect=fixed;html=1;verticalAlign=top;strokeColor=none;align=center;outlineConnect=0;shape=mxgraph.citrix.directory_server;" parent="jYT0G0JyMi2GddSKiYHh-21" vertex="1">
          <mxGeometry x="580" y="46" width="65" height="88.5" as="geometry"/>
        </mxCell>
        <mxCell id="jYT0G0JyMi2GddSKiYHh-37" value="注册手机号" style="whiteSpace=wrap;html=1;rounded=1;arcSize=50;align=center;verticalAlign=middle;container=1;recursiveResize=0;strokeWidth=1;autosize=1;spacing=4;treeFolding=1;treeMoving=1;" parent="jYT0G0JyMi2GddSKiYHh-21" vertex="1">
          <mxGeometry x="270" y="8" width="100" height="30" as="geometry"/>
        </mxCell>
        <mxCell id="jYT0G0JyMi2GddSKiYHh-38" value="" style="edgeStyle=entityRelationEdgeStyle;startArrow=none;endArrow=none;segment=10;curved=1;exitX=0.25;exitY=0;exitDx=0;exitDy=0;" parent="jYT0G0JyMi2GddSKiYHh-21" source="jYT0G0JyMi2GddSKiYHh-30" target="jYT0G0JyMi2GddSKiYHh-37" edge="1">
          <mxGeometry relative="1" as="geometry">
            <mxPoint x="100" y="50" as="sourcePoint"/>
          </mxGeometry>
        </mxCell>
        <mxCell id="jYT0G0JyMi2GddSKiYHh-39" value="上传人脸" style="whiteSpace=wrap;html=1;rounded=1;arcSize=50;align=center;verticalAlign=middle;container=1;recursiveResize=0;strokeWidth=1;autosize=1;spacing=4;treeFolding=1;treeMoving=1;" parent="jYT0G0JyMi2GddSKiYHh-21" vertex="1">
          <mxGeometry x="447" y="8" width="90" height="30" as="geometry"/>
        </mxCell>
        <mxCell id="jYT0G0JyMi2GddSKiYHh-40" value="" style="edgeStyle=entityRelationEdgeStyle;startArrow=none;endArrow=none;segment=10;curved=1;exitX=0.135;exitY=-0.033;exitDx=0;exitDy=0;exitPerimeter=0;" parent="jYT0G0JyMi2GddSKiYHh-21" source="jYT0G0JyMi2GddSKiYHh-31" target="jYT0G0JyMi2GddSKiYHh-39" edge="1">
          <mxGeometry relative="1" as="geometry">
            <mxPoint x="298" y="50" as="sourcePoint"/>
          </mxGeometry>
        </mxCell>
        <mxCell id="jYT0G0JyMi2GddSKiYHh-73" style="edgeStyle=orthogonalEdgeStyle;rounded=0;orthogonalLoop=1;jettySize=auto;html=1;entryX=0;entryY=0.5;entryDx=0;entryDy=0;" parent="jYT0G0JyMi2GddSKiYHh-21" source="jYT0G0JyMi2GddSKiYHh-72" target="jYT0G0JyMi2GddSKiYHh-30" edge="1">
          <mxGeometry relative="1" as="geometry"/>
        </mxCell>
        <mxCell id="jYT0G0JyMi2GddSKiYHh-72" value="" style="verticalLabelPosition=bottom;aspect=fixed;html=1;verticalAlign=top;strokeColor=none;align=center;outlineConnect=0;shape=mxgraph.citrix.users;" parent="jYT0G0JyMi2GddSKiYHh-21" vertex="1">
          <mxGeometry x="50" y="62" width="64.5" height="55" as="geometry"/>
        </mxCell>
        <mxCell id="jYT0G0JyMi2GddSKiYHh-110" value="用户服务器" style="whiteSpace=wrap;html=1;rounded=1;arcSize=50;align=center;verticalAlign=middle;container=1;recursiveResize=0;strokeWidth=1;autosize=1;spacing=4;treeFolding=1;treeMoving=1;" parent="jYT0G0JyMi2GddSKiYHh-21" vertex="1">
          <mxGeometry x="567" y="6" width="100" height="30" as="geometry"/>
        </mxCell>
        <mxCell id="jYT0G0JyMi2GddSKiYHh-111" value="" style="edgeStyle=entityRelationEdgeStyle;startArrow=none;endArrow=none;segment=10;curved=1;" parent="jYT0G0JyMi2GddSKiYHh-21" source="jYT0G0JyMi2GddSKiYHh-32" target="jYT0G0JyMi2GddSKiYHh-110" edge="1">
          <mxGeometry relative="1" as="geometry">
            <mxPoint x="541" y="48" as="sourcePoint"/>
          </mxGeometry>
        </mxCell>
        <mxCell id="jYT0G0JyMi2GddSKiYHh-22" value="服务处理" style="swimlane;html=1;startSize=20;horizontal=0;" parent="jYT0G0JyMi2GddSKiYHh-19" vertex="1">
          <mxGeometry x="20" y="350" width="717.5" height="180" as="geometry"/>
        </mxCell>
        <mxCell id="jYT0G0JyMi2GddSKiYHh-44" style="edgeStyle=orthogonalEdgeStyle;rounded=0;orthogonalLoop=1;jettySize=auto;html=1;entryX=-0.065;entryY=0.5;entryDx=0;entryDy=0;entryPerimeter=0;" parent="jYT0G0JyMi2GddSKiYHh-22" source="jYT0G0JyMi2GddSKiYHh-41" target="uuLHnDY0vErq9mZobmXy-2" edge="1">
          <mxGeometry relative="1" as="geometry">
            <mxPoint x="270" y="120" as="targetPoint"/>
          </mxGeometry>
        </mxCell>
        <mxCell id="jYT0G0JyMi2GddSKiYHh-41" value="" style="image;html=1;labelBackgroundColor=#ffffff;image=img/lib/clip_art/computers/Monitor_Tower_128x128.png" parent="jYT0G0JyMi2GddSKiYHh-22" vertex="1">
          <mxGeometry x="60" y="60" width="80" height="80" as="geometry"/>
        </mxCell>
        <mxCell id="jYT0G0JyMi2GddSKiYHh-45" style="edgeStyle=orthogonalEdgeStyle;rounded=0;orthogonalLoop=1;jettySize=auto;html=1;entryX=0;entryY=0.548;entryDx=0;entryDy=0;entryPerimeter=0;" parent="jYT0G0JyMi2GddSKiYHh-22" source="uuLHnDY0vErq9mZobmXy-2" target="jYT0G0JyMi2GddSKiYHh-43" edge="1">
          <mxGeometry relative="1" as="geometry">
            <mxPoint x="396" y="100" as="sourcePoint"/>
          </mxGeometry>
        </mxCell>
        <mxCell id="jYT0G0JyMi2GddSKiYHh-43" value="" style="verticalLabelPosition=bottom;aspect=fixed;html=1;verticalAlign=top;strokeColor=none;align=center;outlineConnect=0;shape=mxgraph.citrix.directory_server;" parent="jYT0G0JyMi2GddSKiYHh-22" vertex="1">
          <mxGeometry x="580" y="51.5" width="65" height="88.5" as="geometry"/>
        </mxCell>
        <mxCell id="jYT0G0JyMi2GddSKiYHh-46" value="监测新用户" style="whiteSpace=wrap;html=1;rounded=1;arcSize=50;align=center;verticalAlign=middle;container=1;recursiveResize=0;strokeWidth=1;autosize=1;spacing=4;treeFolding=1;treeMoving=1;" parent="jYT0G0JyMi2GddSKiYHh-22" vertex="1">
          <mxGeometry x="106" y="8" width="100" height="30" as="geometry"/>
        </mxCell>
        <mxCell id="jYT0G0JyMi2GddSKiYHh-47" value="" style="edgeStyle=entityRelationEdgeStyle;startArrow=none;endArrow=none;segment=10;curved=1;exitX=0.25;exitY=0;exitDx=0;exitDy=0;" parent="jYT0G0JyMi2GddSKiYHh-22" source="jYT0G0JyMi2GddSKiYHh-41" target="jYT0G0JyMi2GddSKiYHh-46" edge="1">
          <mxGeometry relative="1" as="geometry">
            <mxPoint x="110" y="60" as="sourcePoint"/>
          </mxGeometry>
        </mxCell>
        <mxCell id="jYT0G0JyMi2GddSKiYHh-48" value="对比资料人脸&lt;br&gt;获得学员信息" style="whiteSpace=wrap;html=1;rounded=1;arcSize=50;align=center;verticalAlign=middle;container=1;recursiveResize=0;strokeWidth=1;autosize=1;spacing=4;treeFolding=1;treeMoving=1;" parent="jYT0G0JyMi2GddSKiYHh-22" vertex="1">
          <mxGeometry x="298.5" y="3" width="110" height="40" as="geometry"/>
        </mxCell>
        <mxCell id="jYT0G0JyMi2GddSKiYHh-49" value="" style="edgeStyle=entityRelationEdgeStyle;startArrow=none;endArrow=none;segment=10;curved=1;" parent="jYT0G0JyMi2GddSKiYHh-22" source="uuLHnDY0vErq9mZobmXy-2" target="jYT0G0JyMi2GddSKiYHh-48" edge="1">
          <mxGeometry relative="1" as="geometry">
            <mxPoint x="410" y="80" as="sourcePoint"/>
          </mxGeometry>
        </mxCell>
        <mxCell id="jYT0G0JyMi2GddSKiYHh-112" value="追加学员游客身份到用户" style="whiteSpace=wrap;html=1;rounded=1;arcSize=50;align=center;verticalAlign=middle;container=1;recursiveResize=0;strokeWidth=1;autosize=1;spacing=4;treeFolding=1;treeMoving=1;" parent="jYT0G0JyMi2GddSKiYHh-22" vertex="1">
          <mxGeometry x="527.5" y="8" width="170" height="30" as="geometry"/>
        </mxCell>
        <mxCell id="jYT0G0JyMi2GddSKiYHh-113" value="" style="edgeStyle=entityRelationEdgeStyle;startArrow=none;endArrow=none;segment=10;curved=1;" parent="jYT0G0JyMi2GddSKiYHh-22" source="jYT0G0JyMi2GddSKiYHh-43" target="jYT0G0JyMi2GddSKiYHh-112" edge="1">
          <mxGeometry relative="1" as="geometry">
            <mxPoint x="549" y="50" as="sourcePoint"/>
          </mxGeometry>
        </mxCell>
        <mxCell id="uuLHnDY0vErq9mZobmXy-2" value="" style="verticalLabelPosition=bottom;aspect=fixed;html=1;verticalAlign=top;strokeColor=none;align=center;outlineConnect=0;shape=mxgraph.citrix.web_server;" vertex="1" parent="jYT0G0JyMi2GddSKiYHh-22">
          <mxGeometry x="315" y="55" width="76.5" height="90" as="geometry"/>
        </mxCell>
        <mxCell id="jYT0G0JyMi2GddSKiYHh-87" value="订单处理" style="swimlane;html=1;childLayout=stackLayout;resizeParent=1;resizeParentMax=0;horizontal=1;startSize=20;horizontalStack=0;" parent="1" vertex="1">
          <mxGeometry x="40" y="625" width="720" height="420" as="geometry"/>
        </mxCell>
        <mxCell id="jYT0G0JyMi2GddSKiYHh-59" value="购物 产生订单" style="swimlane;html=1;startSize=20;horizontal=0;" parent="jYT0G0JyMi2GddSKiYHh-87" vertex="1">
          <mxGeometry y="20" width="720" height="240" as="geometry"/>
        </mxCell>
        <mxCell id="jYT0G0JyMi2GddSKiYHh-78" style="edgeStyle=orthogonalEdgeStyle;rounded=0;orthogonalLoop=1;jettySize=auto;html=1;entryX=0;entryY=0.5;entryDx=0;entryDy=0;" parent="jYT0G0JyMi2GddSKiYHh-59" source="jYT0G0JyMi2GddSKiYHh-71" target="jYT0G0JyMi2GddSKiYHh-76" edge="1">
          <mxGeometry relative="1" as="geometry">
            <Array as="points">
              <mxPoint x="200" y="130"/>
              <mxPoint x="200" y="70"/>
            </Array>
          </mxGeometry>
        </mxCell>
        <mxCell id="jYT0G0JyMi2GddSKiYHh-79" style="edgeStyle=orthogonalEdgeStyle;rounded=0;orthogonalLoop=1;jettySize=auto;html=1;" parent="jYT0G0JyMi2GddSKiYHh-59" source="jYT0G0JyMi2GddSKiYHh-71" target="jYT0G0JyMi2GddSKiYHh-77" edge="1">
          <mxGeometry relative="1" as="geometry">
            <Array as="points">
              <mxPoint x="200" y="130"/>
              <mxPoint x="200" y="191"/>
            </Array>
          </mxGeometry>
        </mxCell>
        <mxCell id="jYT0G0JyMi2GddSKiYHh-71" value="" style="verticalLabelPosition=bottom;aspect=fixed;html=1;verticalAlign=top;strokeColor=none;align=center;outlineConnect=0;shape=mxgraph.citrix.users;" parent="jYT0G0JyMi2GddSKiYHh-59" vertex="1">
          <mxGeometry x="50" y="102.5" width="64.5" height="55" as="geometry"/>
        </mxCell>
        <mxCell id="jYT0G0JyMi2GddSKiYHh-76" value="" style="image;html=1;labelBackgroundColor=#ffffff;image=img/lib/clip_art/finance/Shopping_Cart_128x128.png" parent="jYT0G0JyMi2GddSKiYHh-59" vertex="1">
          <mxGeometry x="280" y="30" width="80" height="80" as="geometry"/>
        </mxCell>
        <mxCell id="jYT0G0JyMi2GddSKiYHh-77" value="" style="verticalLabelPosition=bottom;aspect=fixed;html=1;verticalAlign=top;strokeColor=none;align=center;outlineConnect=0;shape=mxgraph.citrix.pda;" parent="jYT0G0JyMi2GddSKiYHh-59" vertex="1">
          <mxGeometry x="304" y="160" width="30" height="61" as="geometry"/>
        </mxCell>
        <mxCell id="jYT0G0JyMi2GddSKiYHh-82" value="订单服务器" style="whiteSpace=wrap;html=1;rounded=1;arcSize=50;align=center;verticalAlign=middle;container=1;recursiveResize=0;strokeWidth=1;autosize=1;spacing=4;treeFolding=1;treeMoving=1;" parent="jYT0G0JyMi2GddSKiYHh-59" vertex="1">
          <mxGeometry x="523.5" y="18" width="100" height="30" as="geometry"/>
        </mxCell>
        <mxCell id="jYT0G0JyMi2GddSKiYHh-85" value="学员购物" style="whiteSpace=wrap;html=1;rounded=1;arcSize=50;align=center;verticalAlign=middle;container=1;recursiveResize=0;strokeWidth=1;autosize=1;spacing=4;treeFolding=1;treeMoving=1;" parent="jYT0G0JyMi2GddSKiYHh-59" vertex="1">
          <mxGeometry x="51" y="26" width="90" height="30" as="geometry"/>
        </mxCell>
        <mxCell id="jYT0G0JyMi2GddSKiYHh-86" value="" style="edgeStyle=entityRelationEdgeStyle;startArrow=none;endArrow=none;segment=10;curved=1;" parent="jYT0G0JyMi2GddSKiYHh-59" source="jYT0G0JyMi2GddSKiYHh-71" target="jYT0G0JyMi2GddSKiYHh-85" edge="1">
          <mxGeometry relative="1" as="geometry">
            <mxPoint x="74.5" y="140" as="sourcePoint"/>
          </mxGeometry>
        </mxCell>
        <mxCell id="jYT0G0JyMi2GddSKiYHh-70" value="" style="verticalLabelPosition=bottom;aspect=fixed;html=1;verticalAlign=top;strokeColor=none;align=center;outlineConnect=0;shape=mxgraph.citrix.dns_server;" parent="jYT0G0JyMi2GddSKiYHh-59" vertex="1">
          <mxGeometry x="560" y="84" width="76.5" height="92.5" as="geometry"/>
        </mxCell>
        <mxCell id="jYT0G0JyMi2GddSKiYHh-80" style="edgeStyle=orthogonalEdgeStyle;rounded=0;orthogonalLoop=1;jettySize=auto;html=1;" parent="jYT0G0JyMi2GddSKiYHh-59" source="jYT0G0JyMi2GddSKiYHh-76" target="jYT0G0JyMi2GddSKiYHh-70" edge="1">
          <mxGeometry relative="1" as="geometry">
            <Array as="points">
              <mxPoint x="460" y="70"/>
              <mxPoint x="460" y="130"/>
            </Array>
          </mxGeometry>
        </mxCell>
        <mxCell id="jYT0G0JyMi2GddSKiYHh-81" style="edgeStyle=orthogonalEdgeStyle;rounded=0;orthogonalLoop=1;jettySize=auto;html=1;" parent="jYT0G0JyMi2GddSKiYHh-59" source="jYT0G0JyMi2GddSKiYHh-77" target="jYT0G0JyMi2GddSKiYHh-70" edge="1">
          <mxGeometry relative="1" as="geometry">
            <Array as="points">
              <mxPoint x="460" y="191"/>
              <mxPoint x="460" y="130"/>
            </Array>
          </mxGeometry>
        </mxCell>
        <mxCell id="jYT0G0JyMi2GddSKiYHh-83" value="" style="edgeStyle=entityRelationEdgeStyle;startArrow=none;endArrow=none;segment=10;curved=1;" parent="jYT0G0JyMi2GddSKiYHh-59" source="jYT0G0JyMi2GddSKiYHh-70" target="jYT0G0JyMi2GddSKiYHh-82" edge="1">
          <mxGeometry relative="1" as="geometry">
            <mxPoint x="496.5" y="60" as="sourcePoint"/>
          </mxGeometry>
        </mxCell>
        <mxCell id="jYT0G0JyMi2GddSKiYHh-84" value="结算台 或 线上商城 购物" style="text;html=1;resizable=0;points=[];autosize=1;align=left;verticalAlign=top;spacingTop=-4;" parent="jYT0G0JyMi2GddSKiYHh-59" vertex="1">
          <mxGeometry x="264" y="120.5" width="140" height="20" as="geometry"/>
        </mxCell>
        <mxCell id="jYT0G0JyMi2GddSKiYHh-88" value="购物 报表" style="swimlane;html=1;startSize=20;horizontal=0;" parent="jYT0G0JyMi2GddSKiYHh-87" vertex="1">
          <mxGeometry y="260" width="720" height="160" as="geometry"/>
        </mxCell>
        <mxCell id="jYT0G0JyMi2GddSKiYHh-91" value="" style="verticalLabelPosition=bottom;aspect=fixed;html=1;verticalAlign=top;strokeColor=none;align=center;outlineConnect=0;shape=mxgraph.citrix.laptop_2;" parent="jYT0G0JyMi2GddSKiYHh-88" vertex="1">
          <mxGeometry x="62" y="27" width="116" height="86.5" as="geometry"/>
        </mxCell>
        <mxCell id="jYT0G0JyMi2GddSKiYHh-94" value="" style="image;html=1;labelBackgroundColor=#ffffff;image=img/lib/clip_art/computers/Server_Rack_128x128.png" parent="jYT0G0JyMi2GddSKiYHh-88" vertex="1">
          <mxGeometry x="326" y="47" width="80" height="80" as="geometry"/>
        </mxCell>
        <mxCell id="jYT0G0JyMi2GddSKiYHh-96" value="" style="shape=doubleArrow;whiteSpace=wrap;html=1;" parent="jYT0G0JyMi2GddSKiYHh-88" vertex="1">
          <mxGeometry x="190" y="79" width="140" height="17" as="geometry"/>
        </mxCell>
        <mxCell id="jYT0G0JyMi2GddSKiYHh-97" value="" style="shape=doubleArrow;whiteSpace=wrap;html=1;" parent="jYT0G0JyMi2GddSKiYHh-88" vertex="1">
          <mxGeometry x="400" y="79" width="140" height="17" as="geometry"/>
        </mxCell>
        <mxCell id="jYT0G0JyMi2GddSKiYHh-100" value="请求下载报表" style="text;html=1;resizable=0;points=[];autosize=1;align=left;verticalAlign=top;spacingTop=-4;" parent="jYT0G0JyMi2GddSKiYHh-88" vertex="1">
          <mxGeometry x="220" y="60.5" width="90" height="20" as="geometry"/>
        </mxCell>
        <mxCell id="jYT0G0JyMi2GddSKiYHh-101" value="处理报表信息" style="whiteSpace=wrap;html=1;rounded=1;arcSize=50;align=center;verticalAlign=middle;container=1;recursiveResize=0;strokeWidth=1;autosize=1;spacing=4;treeFolding=1;treeMoving=1;" parent="jYT0G0JyMi2GddSKiYHh-88" vertex="1">
          <mxGeometry x="388" y="10" width="110" height="30" as="geometry"/>
        </mxCell>
        <mxCell id="jYT0G0JyMi2GddSKiYHh-102" value="" style="edgeStyle=entityRelationEdgeStyle;startArrow=none;endArrow=none;segment=10;curved=1;exitX=0.5;exitY=0;exitDx=0;exitDy=0;" parent="jYT0G0JyMi2GddSKiYHh-88" target="jYT0G0JyMi2GddSKiYHh-101" edge="1">
          <mxGeometry relative="1" as="geometry">
            <mxPoint x="360" y="47" as="sourcePoint"/>
          </mxGeometry>
        </mxCell>
        <mxCell id="jYT0G0JyMi2GddSKiYHh-103" value="返回报表文件" style="text;html=1;resizable=0;points=[];autosize=1;align=left;verticalAlign=top;spacingTop=-4;" parent="jYT0G0JyMi2GddSKiYHh-88" vertex="1">
          <mxGeometry x="220" y="96" width="90" height="20" as="geometry"/>
        </mxCell>
        <mxCell id="jYT0G0JyMi2GddSKiYHh-104" value="" style="group" parent="jYT0G0JyMi2GddSKiYHh-88" vertex="1" connectable="0">
          <mxGeometry x="550" y="34" width="118.5" height="92.5" as="geometry"/>
        </mxCell>
        <mxCell id="jYT0G0JyMi2GddSKiYHh-92" value="" style="verticalLabelPosition=bottom;aspect=fixed;html=1;verticalAlign=top;strokeColor=none;align=center;outlineConnect=0;shape=mxgraph.citrix.dns_server;" parent="jYT0G0JyMi2GddSKiYHh-104" vertex="1">
          <mxGeometry x="42" width="76.5" height="92.5" as="geometry"/>
        </mxCell>
        <mxCell id="jYT0G0JyMi2GddSKiYHh-93" value="" style="verticalLabelPosition=bottom;aspect=fixed;html=1;verticalAlign=top;strokeColor=none;align=center;outlineConnect=0;shape=mxgraph.citrix.directory_server;" parent="jYT0G0JyMi2GddSKiYHh-104" vertex="1">
          <mxGeometry y="4" width="65" height="88.5" as="geometry"/>
        </mxCell>
        <mxCell id="jYT0G0JyMi2GddSKiYHh-114" value="用户与订单服务器" style="whiteSpace=wrap;html=1;rounded=1;arcSize=50;align=center;verticalAlign=middle;container=1;recursiveResize=0;strokeWidth=1;autosize=1;spacing=4;treeFolding=1;treeMoving=1;" parent="jYT0G0JyMi2GddSKiYHh-88" vertex="1">
          <mxGeometry x="530" y="6" width="140" height="30" as="geometry"/>
        </mxCell>
        <mxCell id="jYT0G0JyMi2GddSKiYHh-115" value="" style="edgeStyle=entityRelationEdgeStyle;startArrow=none;endArrow=none;segment=10;curved=1;" parent="jYT0G0JyMi2GddSKiYHh-88" source="jYT0G0JyMi2GddSKiYHh-92" target="jYT0G0JyMi2GddSKiYHh-114" edge="1">
          <mxGeometry relative="1" as="geometry">
            <mxPoint x="507" y="48" as="sourcePoint"/>
          </mxGeometry>
        </mxCell>
      </root>
    </mxGraphModel>
  </diagram>
</mxfile>
